<svg id="efe29cc6-e768-434b-86a3-3cd729f46cf4" data-name="Layer 1" xmlns="http://www.w3.org/2000/svg" viewBox="0 0 1854.6 1570.05"><path d="M1524.53,0c5,.24,5.93.78,8.81,2.2,5.86,39.39-30,99.57-22,141,3.77,19.72,16,46.72,29.75,57.29,24.5,18.91,125.21,45.91,158.65,26.45,33.73-19.64,46.69-45.14,56.19-89.24,5.62-26.1,2-76,26.44-82.63,37.86,55,93.54,138,63.9,234.66-11.36,37.05-33,64-55.09,90.34-33.82,40.34-106.43,50.8-124.49,105.77l-18.73,96.95c-22.35,88-41.5,176.72-72.72,256.7-90.64,232.25-258.16,409.78-490.26,501.29l1.1,2.2c51.38,21,101.55,90.59,126.7,139.92,7.91,15.52,24.64,40.33,24.24,58.39-31.37,5.68-62.3,17.74-97,24.24-119.19,22.37-217-43-263.31-102.46l-43-65c-115.1,1.43-241.45,10.09-349.24-8.82-56.66-9.93-105.1-10.81-149.84-28.64-113.51-45.23-194-133.71-254.5-232.46-30.62-50-117.94-206.42-61.69-277.64,35.11-44.46,129.62-90.29,197.21-101.36l82.63,15.43,117.88,20.93c42.8,9.38,109.42,23.78,167.46,14.32l231.36-11,145.43-15.42c155.67-29.23,301.53-52.9,408.74-128.9,55.22-39.14,98-89.15,98.06-184,0-20.61,1.33-40.63-5.51-57.29-7.67-18.66-24.88-31.09-36.36-46.27-26.76-35.38-63.45-91.7-51.78-158.65C1391.36,96.35,1454.87,50,1524.53,0Z" style="fill:#6fa7da;fill-rule:evenodd"/></svg>