<svg id="b80cc049-fc3c-4bc9-9dde-efea4d25250a" data-name="Layer 1" xmlns="http://www.w3.org/2000/svg" viewBox="0 0 28 19"><rect x="12.14" y="-3.09" width="2" height="26.82" transform="translate(-2.89 15.02) rotate(-54.49)" style="fill:#636efe"/><path d="M14,3.17a6.32,6.32,0,0,1,6,8.37l4.48,3.19A15,15,0,0,0,28,9.5,15.06,15.06,0,0,0,6.59,2l3.54,2.53A6.38,6.38,0,0,1,14,3.17Z" style="fill:#636efe"/><path d="M17.82,9.5A3.79,3.79,0,0,0,16.7,6.81a3.78,3.78,0,0,0-4.33-.73l5.4,3.86A3.29,3.29,0,0,0,17.82,9.5Z" style="fill:#636efe"/><path d="M10.18,9.5a3.79,3.79,0,0,0,1.12,2.69,3.84,3.84,0,0,0,5.4,0,4.47,4.47,0,0,0,.29-.35L10.81,7.42A3.77,3.77,0,0,0,10.18,9.5Z" style="fill:#636efe"/><path d="M18.5,14A6.36,6.36,0,0,1,7.64,9.5,6.29,6.29,0,0,1,8.74,6L4.8,3.14A15.07,15.07,0,0,0,0,9.5,15.05,15.05,0,0,0,14,19a15,15,0,0,0,8.92-2.93l-3.85-2.75A7.09,7.09,0,0,1,18.5,14Z" style="fill:#636efe"/></svg>