<svg xmlns="http://www.w3.org/2000/svg" width="3" height="12" fill="none" xmlns:v="https://vecta.io/nano"><path d="M1.5 12c-.413 0-.766-.147-1.06-.441A1.44 1.44 0 0 1 0 10.5c0-.412.147-.766.441-1.06A1.44 1.44 0 0 1 1.5 9c.413 0 .766.147 1.06.441A1.44 1.44 0 0 1 3 10.5c0 .412-.147.766-.441 1.06A1.44 1.44 0 0 1 1.5 12zm0-4.5c-.413 0-.766-.147-1.06-.441A1.44 1.44 0 0 1 0 6c0-.412.147-.766.441-1.06A1.44 1.44 0 0 1 1.5 4.5c.413 0 .766.147 1.06.441A1.44 1.44 0 0 1 3 6c0 .412-.147.766-.441 1.06A1.44 1.44 0 0 1 1.5 7.5zm0-4.5c-.413 0-.766-.147-1.06-.441A1.44 1.44 0 0 1 0 1.5C0 1.088.147.734.441.44A1.44 1.44 0 0 1 1.5 0c.413 0 .766.147 1.06.441A1.44 1.44 0 0 1 3 1.5c0 .413-.147.766-.441 1.06A1.44 1.44 0 0 1 1.5 3z" fill="#636efe"/></svg>