<svg xmlns="http://www.w3.org/2000/svg" width="48" height="55" fill="none" xmlns:v="https://vecta.io/nano"><path d="M47.95 22.505v25.298c0 1.654-.662 3.24-1.839 4.409a6.3 6.3 0 0 1-4.44 1.826H12.368a6.3 6.3 0 0 1-4.44-1.826c-1.178-1.169-1.839-2.755-1.839-4.409V6.235c0-1.654.662-3.24 1.839-4.409A6.3 6.3 0 0 1 12.368 0h12.918a4.2 4.2 0 0 1 2.959 1.217l18.479 18.35c.785.779 1.225 1.836 1.226 2.938z" fill="#eaeae4"/><path d="M26.639.761v15.623c0 1.105.439 2.164 1.22 2.946s1.841 1.22 2.946 1.22h15.623" fill="#babab9"/><rect y="27.4" width="26.639" height="18.267" rx="1" fill="#f24646"/><path d="M7.19 33.265c.921 0 1.593.199 2.017.596s.635.938.635 1.631a2.85 2.85 0 0 1-.142.898 1.97 1.97 0 0 1-.464.757c-.212.221-.495.397-.85.527s-.793.191-1.313.191h-.649v2.539H4.909v-7.139h2.28zm-.078 1.24h-.688v2.119h.498a2.18 2.18 0 0 0 .737-.112c.208-.075.369-.192.483-.351s.171-.365.171-.615c0-.352-.098-.612-.293-.781s-.498-.259-.908-.259zm10 2.261c0 .804-.155 1.476-.464 2.017s-.75.942-1.333 1.216-1.284.405-2.104.405h-2.021v-7.139h2.241c.749 0 1.398.133 1.948.4a2.89 2.89 0 0 1 1.279 1.177c.303.518.454 1.159.454 1.924zm-1.572.039c0-.527-.078-.96-.234-1.299s-.381-.594-.684-.757-.671-.244-1.113-.244h-.806v4.648h.65c.739 0 1.287-.197 1.645-.591s.542-.98.542-1.758zm4.541 3.599h-1.489v-7.139h4.092v1.24H20.08v1.841h2.422v1.235H20.08v2.822z" fill="#fff"/></svg>