<svg xmlns="http://www.w3.org/2000/svg" width="92" height="67" fill="none" xmlns:v="https://vecta.io/nano"><path d="M41.818 67H23c-6.342 0-11.762-2.198-16.259-6.595S-.003 50.634 0 44.283c0-5.444 1.638-10.294 4.914-14.551s7.562-6.979 12.859-8.166C19.515 15.145 23 9.945 28.227 5.967S39.379 0 46 0c8.154 0 15.073 2.845 20.754 8.534s8.521 12.616 8.518 20.778c4.809.558 8.8 2.635 11.973 6.231s4.757 7.8 4.755 12.613c0 5.234-1.83 9.684-5.491 13.35S78.406 67.003 73.182 67h-23V37.059l6.691 6.491 5.855-5.862L46 20.938l-16.727 16.75 5.855 5.862 6.691-6.491V67z" fill="#c9ccff"/></svg>