<svg xmlns="http://www.w3.org/2000/svg" width="48" height="55" fill="none" xmlns:v="https://vecta.io/nano"><path d="M47.95 22.505v25.298c0 1.654-.662 3.24-1.839 4.409a6.3 6.3 0 0 1-4.44 1.826H12.368a6.3 6.3 0 0 1-4.44-1.826c-1.178-1.169-1.839-2.755-1.839-4.409V6.235c0-1.654.662-3.24 1.839-4.409A6.3 6.3 0 0 1 12.368 0h12.918a4.2 4.2 0 0 1 2.959 1.217l18.479 18.35c.785.779 1.225 1.836 1.226 2.938z" fill="#eaeae4"/><path d="M26.639.761v15.623c0 1.105.439 2.164 1.22 2.946s1.841 1.22 2.946 1.22h15.623" fill="#babab9"/><rect y="27.4" width="26.639" height="18.267" rx="1" fill="#2e7d32"/><path d="M12.468 40.403H8.357v-7.139h4.111v1.24H9.87v1.567h2.417v1.24H9.87v1.841h2.598v1.25zm7.266 0h-1.729l-1.66-2.7-1.66 2.7h-1.621l2.368-3.682-2.217-3.457h1.67l1.538 2.568 1.509-2.568h1.631l-2.241 3.54 2.412 3.599z" fill="#fff"/></svg>