<svg xmlns="http://www.w3.org/2000/svg" width="20" height="20" fill="none" xmlns:v="https://vecta.io/nano"><path d="M9 15h2v-4h4V9h-4V5H9v4H5v2h4v4zm1 5c-1.383 0-2.683-.263-3.9-.788s-2.275-1.238-3.175-2.137A10.09 10.09 0 0 1 .788 13.9C.263 12.683.001 11.383 0 10s.263-2.683.788-3.9 1.238-2.275 2.137-3.175S4.883 1.313 6.1.788 8.617.001 10 0s2.683.263 3.9.788 2.275 1.238 3.175 2.137 1.613 1.958 2.138 3.175A9.72 9.72 0 0 1 20 10c0 1.383-.263 2.683-.788 3.9s-1.238 2.275-2.137 3.175-1.958 1.613-3.175 2.138A9.72 9.72 0 0 1 10 20z" fill="#fff"/></svg>