<svg width="28" height="19" viewBox="0 0 28 19" fill="none" xmlns="http://www.w3.org/2000/svg">
<path d="M13.75 5.625C12.7554 5.625 11.8016 6.02009 11.0983 6.72335C10.3951 7.42661 10 8.38044 10 9.375C10 10.3696 10.3951 11.3234 11.0983 12.0267C11.8016 12.7299 12.7554 13.125 13.75 13.125C14.7446 13.125 15.6984 12.7299 16.4017 12.0267C17.1049 11.3234 17.5 10.3696 17.5 9.375C17.5 8.38044 17.1049 7.42661 16.4017 6.72335C15.6984 6.02009 14.7446 5.625 13.75 5.625ZM13.75 15.625C12.0924 15.625 10.5027 14.9665 9.33058 13.7944C8.15848 12.6223 7.5 11.0326 7.5 9.375C7.5 7.7174 8.15848 6.12769 9.33058 4.95558C10.5027 3.78348 12.0924 3.125 13.75 3.125C15.4076 3.125 16.9973 3.78348 18.1694 4.95558C19.3415 6.12769 20 7.7174 20 9.375C20 11.0326 19.3415 12.6223 18.1694 13.7944C16.9973 14.9665 15.4076 15.625 13.75 15.625ZM13.75 0C7.5 0 2.1625 3.8875 0 9.375C2.1625 14.8625 7.5 18.75 13.75 18.75C20 18.75 25.3375 14.8625 27.5 9.375C25.3375 3.8875 20 0 13.75 0Z" fill="#636EFE"/>
</svg>