<svg xmlns="http://www.w3.org/2000/svg" width="15" height="11" fill="none" xmlns:v="https://vecta.io/nano"><path d="M10.5 9.533V11H0V9.533S0 6.6 5.25 6.6s5.25 2.933 5.25 2.933zM7.875 2.567c0-.508-.154-1.004-.442-1.426S6.734.39 6.255.195A2.68 2.68 0 0 0 4.738.049c-.509.099-.977.343-1.344.702a2.55 2.55 0 0 0-.718 1.314c-.101.498-.049 1.014.149 1.483a2.58 2.58 0 0 0 .967 1.152c.432.282.939.433 1.458.433.696 0 1.364-.27 1.856-.752a2.54 2.54 0 0 0 .769-1.815zm2.58 4.033c.461.349.838.792 1.105 1.299s.417 1.065.44 1.634V11h3V9.533s0-2.662-4.545-2.933zM9.75 0c-.516-.003-1.021.148-1.447.433a3.61 3.61 0 0 1 .701 2.134 3.61 3.61 0 0 1-.701 2.134c.426.285.931.435 1.447.433.696 0 1.364-.27 1.856-.752a2.54 2.54 0 0 0 .769-1.815 2.54 2.54 0 0 0-.769-1.815C11.114.27 10.446 0 9.75 0z" fill="#949494"/></svg>