<svg xmlns="http://www.w3.org/2000/svg" width="15" height="15" fill="none" xmlns:v="https://vecta.io/nano"><path d="M13.833 15l-5.25-5.25c-.417.333-.896.597-1.437.792a5.08 5.08 0 0 1-1.729.292c-1.514 0-2.795-.524-3.843-1.573A5.23 5.23 0 0 1 0 5.417c0-1.514.524-2.795 1.573-3.843A5.23 5.23 0 0 1 5.417 0C6.931 0 8.212.524 9.26 1.573s1.573 2.33 1.573 3.843a5.08 5.08 0 0 1-.292 1.729c-.194.542-.458 1.021-.792 1.438l5.25 5.25L13.833 15zM5.417 9.167c1.042 0 1.927-.365 2.657-1.094a3.61 3.61 0 0 0 1.093-2.656c0-1.042-.365-1.927-1.094-2.657a3.61 3.61 0 0 0-2.656-1.093c-1.042 0-1.927.365-2.657 1.094a3.61 3.61 0 0 0-1.093 2.656c0 1.042.365 1.927 1.094 2.657a3.61 3.61 0 0 0 2.656 1.093z" fill="#636efe"/></svg>