<svg xmlns="http://www.w3.org/2000/svg" width="48" height="55" fill="none" xmlns:v="https://vecta.io/nano"><path d="M47.95 22.505v25.298c0 1.654-.662 3.24-1.839 4.409a6.3 6.3 0 0 1-4.44 1.826H12.368a6.3 6.3 0 0 1-4.44-1.826c-1.178-1.169-1.839-2.755-1.839-4.409V6.235c0-1.654.662-3.24 1.839-4.409A6.3 6.3 0 0 1 12.368 0h12.918a4.2 4.2 0 0 1 2.959 1.217l18.479 18.35c.785.779 1.225 1.836 1.226 2.938z" fill="#eaeae4"/><path d="M26.639.761v15.623c0 1.105.439 2.164 1.22 2.946s1.841 1.22 2.946 1.22h15.623" fill="#babab9"/><rect y="27.4" width="26.639" height="18.267" rx="1" fill="#1565c0"/><path d="M14.729 33.265l-1.816 7.139h-1.724l-.967-3.75-.078-.327-.103-.478-.098-.493-.054-.371a4.75 4.75 0 0 1-.059.366l-.093.488-.098.483-.078.342-.962 3.74H6.882l-1.821-7.139H6.55l.913 3.896.088.42.103.513.093.513.063.425.063-.43.083-.503.098-.478.088-.356 1.04-3.999h1.431l1.04 3.999.078.356.098.478.088.508.063.425.093-.591.132-.698.127-.581.908-3.896h1.489zm6.821 3.501c0 .804-.155 1.476-.464 2.017s-.75.942-1.333 1.216-1.284.405-2.105.405h-2.021v-7.139h2.241c.749 0 1.398.133 1.948.4a2.89 2.89 0 0 1 1.279 1.177c.303.518.454 1.159.454 1.924zm-1.572.039c0-.527-.078-.96-.234-1.299s-.381-.594-.684-.757-.671-.244-1.113-.244h-.806v4.648h.649c.739 0 1.288-.197 1.646-.591s.542-.98.542-1.758z" fill="#fff"/></svg>