<svg xmlns="http://www.w3.org/2000/svg" width="15" height="15" fill="none" xmlns:v="https://vecta.io/nano"><path d="M9.803 6.938l-.675.69c-.54.54-.877.997-.877 2.122h-1.5v-.375a2.99 2.99 0 0 1 .878-2.122l.93-.945C8.835 6.038 9 5.663 9 5.25a1.5 1.5 0 0 0-1.5-1.5A1.5 1.5 0 0 0 6 5.25H4.5a3 3 0 0 1 3-3 3 3 0 0 1 3 3 2.4 2.4 0 0 1-.697 1.688zM8.25 12.75h-1.5v-1.5h1.5M7.5 0a7.5 7.5 0 0 0-5.303 2.197 7.5 7.5 0 0 0 0 10.607A7.5 7.5 0 0 0 7.5 15 7.5 7.5 0 0 0 15 7.5 7.51 7.51 0 0 0 7.5 0z" fill="#636efe"/></svg>