<svg xmlns="http://www.w3.org/2000/svg" width="48" height="55" fill="none" xmlns:v="https://vecta.io/nano"><path d="M47.95 22.505v25.298c0 1.654-.662 3.24-1.839 4.409a6.3 6.3 0 0 1-4.44 1.826H12.368a6.3 6.3 0 0 1-4.44-1.826c-1.178-1.169-1.839-2.755-1.839-4.409V6.235c0-1.654.662-3.24 1.839-4.409A6.3 6.3 0 0 1 12.368 0h12.918a4.2 4.2 0 0 1 2.959 1.217l18.479 18.35c.785.779 1.225 1.836 1.226 2.938z" fill="#eaeae4"/><path d="M26.638.761v15.623c0 1.105.439 2.164 1.22 2.946s1.841 1.22 2.946 1.22h15.623" fill="#babab9"/><rect y="27.4" width="26.639" height="18.267" rx="1" fill="#9315c0"/><path d="M4.499 40.403v-7.139h1.514v7.139H4.499zm6.333 0l-1.719-5.601H9.07l.029.605.044.855.02.82v3.32H7.81v-7.139H9.87l1.689 5.459h.029l1.792-5.459h2.061v7.139h-1.411v-3.379l.01-.776.034-.835.029-.601h-.044l-1.841 5.591h-1.387zm9.121-4.009h2.832v3.701c-.374.124-.763.223-1.167.298s-.861.107-1.372.107c-.71 0-1.312-.14-1.807-.42s-.871-.693-1.128-1.24-.386-1.219-.386-2.017c0-.749.143-1.396.43-1.943a3.03 3.03 0 0 1 1.265-1.27c.557-.3 1.235-.449 2.036-.449a5.16 5.16 0 0 1 1.118.122c.368.081.701.187 1.001.317l-.503 1.211c-.218-.111-.467-.203-.747-.278s-.573-.112-.879-.112c-.439 0-.822.101-1.147.303s-.573.485-.752.85-.264.788-.264 1.279c0 .466.063.879.19 1.24s.327.64.601.845.63.303 1.069.303a4.21 4.21 0 0 0 .542-.029l.42-.068v-1.489h-1.353v-1.26z" fill="#fff"/></svg>