<svg xmlns="http://www.w3.org/2000/svg" version="1.1" xmlns:xlink="http://www.w3.org/1999/xlink" xmlns:svgjs="http://svgjs.com/svgjs" width="800" height="800"><svg xmlns="http://www.w3.org/2000/svg" xmlns:xlink="http://www.w3.org/1999/xlink" height="800" width="800" viewBox="0 0 512 512" xmlns:v="https://vecta.io/nano"><use xlink:href="#B" fill="#8777af"></use><g fill="#3a42bb"><use xlink:href="#B"></use><path d="M216.508 141.796H33.458c-3.39 0-6.563-.433-9.665-1.227-12.91-3.101-22.43-12.549-22.43-23.657V24.884C1.363 11.179 15.86 0 33.458 0h99.459l37.36 63.397 13.271 22.43 12.549 21.35 20.411 34.619z"></path></g><path d="M26.266 381.982c-1.327 0-2.489-1.162-2.489-2.489V88.318c0-1.327 1.162-2.489 2.489-2.489h380.767c1.327 0 2.489 1.162 2.489 2.489v291.175c0 1.327-1.162 2.489-2.489 2.489H26.266z" fill="#fff"></path><path d="M510.629 128.814c.072.072 0 .072 0 .144l-2.02 6.635-10.314 33.394-11.035 35.701-10.314 33.32-11.035 35.703-10.241 33.392-23.801 76.883-.722 1.731c-.072 0-.072.072-.072.144l-.144.144a.55.55 0 0 1-.144.289c-4.039 8.149-12.982 15.073-22.503 17.959-.144 0-.216.072-.288.072h-.072c-3.174.937-6.275 1.442-9.376 1.442H17.807c-12.549 0-19.834-8.221-17.309-18.751.144-1.011.505-2.02.865-3.03l.288-1.009 22.142-71.62 52.362-169.561 3.967-12.838c4.616-11.974 19.618-21.782 33.321-21.782h380.741c13.632.001 21.061 9.736 16.445 21.638z" fill="#636efe"></path><path d="M465.94 273.725l-10.303 33.373H301.265v-33.373zm21.328-69.061l-10.303 33.373H324.783v-33.373z" fill="#f9fbff"></path><path d="M510.629 128.814c.072.072 0 .072 0 .144l-2.02 6.635-10.314 33.394-11.035 35.701-10.314 33.32-11.035 35.703-10.241 33.392-23.801 76.883-.722 1.731c-.072 0-.072.072-.072.144l-.144.144a.55.55 0 0 1-.144.289c-1.01 3.678-2.885 7.068-5.409 9.808-4.255 4.761-10.314 7.79-17.093 8.151-.144 0-.216.072-.288.072h-.072c-3.174.937-6.275 1.442-9.376 1.442H53.076l1.37-1.37 22.43-22.431 274.792-274.791 21.348-21.35 22.431-22.43h11.612c13.632 0 24.883 11.252 24.883 24.955v18.825h62.242c13.632.002 21.061 9.737 16.445 21.639z" opacity=".06" fill="#040000"></path><defs><path id="SvgjsPath1000" d="M431.942 88.352v291.165c0 2.162-.289 4.184-.794 6.202-.072 0-.072.072-.072.144-1.009 3.823-2.957 7.357-5.698 10.241-4.255 4.833-10.458 8.007-17.382 8.223h-.072c-.289.072-.577.072-.866.072H26.246a24.31 24.31 0 0 1-10.963-2.597A25.3 25.3 0 0 1 3.959 390.48c-1.154-2.308-1.947-4.833-2.308-7.501-.216-1.155-.288-2.309-.288-3.462V88.352c0-13.703 11.251-24.955 24.883-24.955H407.06c13.631 0 24.882 11.252 24.882 24.955z"></path></defs></svg><style>@media (prefers-color-scheme: light) { :root { filter: none; } }
</style></svg>